# xmcd
#
# Track frame offsets:
#	150
#	24205
#	45717
#	77452
#	100365
#	120517
#	147567
#
# Disc length: 2484 seconds
#
# Revision: 1
# Processed by: cddbd v1.4PL0 Copyright (c) Steve Scherf et al.
# Submitted via: EasyCDDAExtractor 5.1.0
#
DISCID=5109b207
DTITLE=Joe Turner - Kansas City Here I Come
DYEAR=1992
DGENRE=Blues
TTITLE0=Down Home Blues
TTITLE1=Since I Fell for You
TTITLE2=Call The Plumber
TTITLE3=Time After Time
TTITLE4=Kansas City
TTITLE5=Sweet Sixteen
TTITLE6=Big Legged Woman
EXTD=
EXTT0=
EXTT1=
EXTT2=
EXTT3=
EXTT4=
EXTT5=
EXTT6=
PLAYORDER=
